<?xml version="1.0" standalone="no"?>
<!DOCTYPE svg PUBLIC "-//W3C//DTD SVG 20010904//EN"
 "http://www.w3.org/TR/2001/REC-SVG-20010904/DTD/svg10.dtd">
<svg version="1.0" xmlns="http://www.w3.org/2000/svg"
 width="32.000000pt" height="32.000000pt" viewBox="0 0 32.000000 32.000000"
 preserveAspectRatio="xMidYMid meet">

<g transform="translate(0.000000,32.000000) scale(0.100000,-0.100000)"
fill="#000000" stroke="none">
<path d="M145 300 c-16 -4 -39 -11 -49 -15 -15 -7 -17 -5 -11 6 5 8 5 11 -1 6
-5 -5 -9 -12 -9 -15 -1 -4 -11 -23 -23 -42 -12 -19 -22 -42 -22 -50 0 -8 10 6
23 30 22 45 22 45 79 47 49 1 60 -2 73 -20 8 -12 15 -35 15 -51 0 -28 0 -29
20 -11 27 24 23 73 -7 92 -13 8 -21 18 -19 22 6 9 -33 9 -69 1z"/>
<path d="M271 264 c13 -17 26 -30 28 -27 3 2 -8 16 -24 31 l-28 27 24 -31z"/>
<path d="M86 253 c-3 -3 -6 -16 -6 -28 0 -32 -40 -81 -51 -63 -5 8 -6 -1 -2
-21 4 -22 3 -32 -4 -28 -6 4 -5 -8 2 -30 14 -40 39 -62 77 -67 12 -2 31 -7 41
-11 46 -19 167 56 167 103 0 10 -6 5 -16 -13 -8 -16 -19 -34 -25 -40 -15 -15
-11 8 7 33 9 14 13 30 8 40 -4 9 -6 27 -5 39 1 11 -2 24 -7 27 -12 7 -36 -20
-28 -33 3 -5 0 -11 -6 -14 -10 -4 -11 -7 0 -18 17 -19 15 -48 -6 -67 -10 -10
-11 -12 -2 -7 13 9 13 8 1 -7 -9 -12 -21 -16 -40 -12 -20 4 -22 3 -11 -5 12
-8 11 -10 -7 -8 -12 0 -19 5 -16 11 4 5 -1 7 -10 3 -9 -3 -18 -1 -21 6 -3 9
-7 8 -14 -2 -6 -9 -19 -11 -36 -7 -30 7 -49 59 -33 91 6 11 13 26 16 33 9 21
25 16 31 -10 7 -27 47 -36 82 -17 19 9 21 9 11 -2 -7 -7 -13 -18 -13 -23 1
-17 40 34 40 51 0 11 -6 10 -29 -6 -31 -23 -56 -28 -45 -10 4 8 0 9 -15 4 -29
-9 -26 9 5 30 19 12 29 14 37 6 18 -18 30 -12 25 14 -3 13 0 26 6 28 8 3 8 8
0 17 -15 16 -49 9 -49 -10 0 -8 -9 -19 -21 -25 -11 -5 -19 -16 -16 -23 2 -6
-1 -12 -7 -12 -6 0 -11 12 -11 26 0 20 4 24 19 19 14 -4 19 -1 17 11 -3 18
-30 37 -40 27z m91 -38 c0 -8 -6 -15 -14 -15 -14 0 -17 12 -6 23 11 11 20 8
20 -8z"/>
<path d="M271 230 c14 -31 19 -36 19 -24 0 6 -7 19 -16 30 -14 18 -14 18 -3
-6z"/>
<path d="M292 165 c0 -16 2 -22 5 -12 2 9 2 23 0 30 -3 6 -5 -1 -5 -18z"/>
<path d="M312 160 c0 -19 2 -27 5 -17 2 9 2 25 0 35 -3 9 -5 1 -5 -18z"/>
<path d="M140 170 c0 -5 5 -10 11 -10 5 0 7 5 4 10 -3 6 -8 10 -11 10 -2 0 -4
-4 -4 -10z"/>
<path d="M67 133 c3 -10 9 -22 12 -28 3 -5 6 -14 6 -19 0 -5 7 -13 16 -19 19
-12 69 -1 69 14 0 6 -6 9 -14 6 -8 -3 -17 -1 -20 6 -3 9 -5 8 -5 -1 -2 -22
-38 5 -45 33 -4 14 -11 25 -16 25 -5 0 -7 -8 -3 -17z"/>
</g>
</svg>
